<?xml version="1.0" encoding="UTF-8" standalone="no"?>
<!DOCTYPE svg PUBLIC "-//W3C//DTD SVG 1.1//EN" "http://www.w3.org/Graphics/SVG/1.1/DTD/svg11.dtd">
<svg width="100%" height="100%" viewBox="0 0 24 24" version="1.1" xmlns="http://www.w3.org/2000/svg" xmlns:xlink="http://www.w3.org/1999/xlink" xml:space="preserve" xmlns:serif="http://www.serif.com/" style="fill-rule:evenodd;clip-rule:evenodd;stroke-linejoin:round;stroke-miterlimit:2;">
    <g id="apple_music_android_logo_icon_134021.svg">
    </g>
    <path d="M23.853,12C23.853,18.582 18.509,23.926 11.926,23.926C5.344,23.926 0,18.582 0,12C0,5.418 5.344,0.074 11.926,0.074C18.509,0.074 23.853,5.418 23.853,12ZM15.992,5.692L9.448,6.916C9.197,6.957 8.988,7.083 8.821,7.292C8.664,7.491 8.585,7.721 8.585,7.983L8.585,15.264C8.585,15.275 8.58,15.28 8.57,15.28C8.559,15.29 8.549,15.295 8.538,15.295C8.266,15.212 8.01,15.17 7.769,15.17C7.121,15.17 6.592,15.343 6.184,15.688C5.776,16.033 5.572,16.462 5.572,16.975C5.572,17.383 5.734,17.717 6.059,17.979C6.383,18.251 6.796,18.387 7.298,18.387C8.031,18.387 8.606,18.183 9.025,17.775C9.443,17.356 9.652,16.776 9.652,16.033L9.652,9.693C9.652,9.609 9.694,9.557 9.778,9.536L15.663,8.406C15.694,8.396 15.725,8.406 15.757,8.438C15.788,8.459 15.804,8.485 15.804,8.516L15.804,13.695C15.804,13.705 15.799,13.711 15.788,13.711C15.778,13.721 15.767,13.726 15.757,13.726C15.485,13.642 15.228,13.601 14.988,13.601C14.339,13.601 13.811,13.773 13.403,14.119C12.995,14.464 12.791,14.893 12.791,15.405C12.791,15.813 12.953,16.153 13.277,16.425C13.602,16.687 14.015,16.818 14.517,16.818C15.249,16.818 15.825,16.614 16.243,16.206C16.662,15.787 16.871,15.207 16.871,14.464L16.871,6.413C16.871,6.183 16.782,5.995 16.604,5.848C16.426,5.702 16.222,5.65 15.992,5.692Z" style="fill:#fff;"/>
</svg>
