<?xml version="1.0" encoding="UTF-8" standalone="no"?>
<!DOCTYPE svg PUBLIC "-//W3C//DTD SVG 1.1//EN" "http://www.w3.org/Graphics/SVG/1.1/DTD/svg11.dtd">
<svg width="100%" height="100%" viewBox="0 0 24 24" version="1.1" xmlns="http://www.w3.org/2000/svg" xmlns:xlink="http://www.w3.org/1999/xlink" xml:space="preserve" xmlns:serif="http://www.serif.com/" style="fill-rule:evenodd;clip-rule:evenodd;stroke-linejoin:round;stroke-miterlimit:2;">
    <path d="M17.676,7.517C17.948,7.789 18.401,7.789 18.657,7.517L20.019,6.099C20.308,5.827 20.292,5.336 19.987,5.042C18.916,4.109 17.671,3.398 16.324,2.949L16.754,0.878C16.847,0.425 16.509,0 16.057,0L13.418,0C13.08,0.004 12.787,0.246 12.721,0.578L12.339,2.42C8.829,2.6 5.853,4.382 5.853,8.035C5.853,11.196 8.311,12.553 10.911,13.485C13.369,14.423 14.672,14.772 14.672,16.091C14.672,17.448 13.375,18.244 11.456,18.244C9.712,18.244 7.88,17.661 6.463,16.238C6.33,16.105 6.15,16.03 5.962,16.03C5.774,16.03 5.593,16.105 5.46,16.238L3.989,17.71C3.702,17.997 3.702,18.469 3.989,18.756C5.133,19.885 6.583,20.702 8.236,21.155L7.832,23.101C7.74,23.553 8.072,23.973 8.525,23.978L11.168,24C11.511,24.002 11.809,23.758 11.877,23.422L12.259,21.574C16.482,21.291 19.055,18.963 19.055,15.568C19.055,12.439 16.493,11.12 13.386,10.046C11.609,9.386 10.072,8.934 10.072,7.577C10.072,6.258 11.505,5.734 12.944,5.734C14.776,5.734 16.536,6.492 17.686,7.528L17.676,7.517Z" style="fill:white;fill-rule:nonzero;"/>
</svg>
