<?xml version="1.0" encoding="UTF-8" standalone="no"?>
<!DOCTYPE svg PUBLIC "-//W3C//DTD SVG 1.1//EN" "http://www.w3.org/Graphics/SVG/1.1/DTD/svg11.dtd">
<svg width="100%" height="100%" viewBox="0 0 24 24" version="1.1" xmlns="http://www.w3.org/2000/svg" xmlns:xlink="http://www.w3.org/1999/xlink" xml:space="preserve" xmlns:serif="http://www.serif.com/" style="fill-rule:evenodd;clip-rule:evenodd;stroke-linejoin:round;stroke-miterlimit:2;">
    <path d="M20.33,4.267C18.777,3.54 17.116,3.012 15.379,2.711C15.166,3.096 14.916,3.615 14.745,4.028C12.898,3.75 11.069,3.75 9.257,4.028C9.085,3.615 8.831,3.096 8.615,2.711C6.877,3.012 5.214,3.542 3.66,4.271C0.527,9.006 -0.323,13.623 0.102,18.175C2.18,19.727 4.194,20.67 6.175,21.287C6.663,20.614 7.1,19.899 7.475,19.145C6.76,18.873 6.075,18.538 5.427,18.148C5.599,18.021 5.767,17.888 5.929,17.751C9.878,19.598 14.169,19.598 18.071,17.751C18.235,17.888 18.403,18.021 18.573,18.148C17.923,18.54 17.236,18.875 16.521,19.147C16.897,19.899 17.331,20.616 17.822,21.289C19.804,20.672 21.82,19.729 23.898,18.175C24.396,12.898 23.047,8.323 20.33,4.267ZM8.013,15.376C6.828,15.376 5.856,14.269 5.856,12.922C5.856,11.574 6.807,10.465 8.013,10.465C9.219,10.465 10.192,11.572 10.171,12.922C10.173,14.269 9.219,15.376 8.013,15.376ZM15.987,15.376C14.801,15.376 13.829,14.269 13.829,12.922C13.829,11.574 14.78,10.465 15.987,10.465C17.193,10.465 18.165,11.572 18.144,12.922C18.144,14.269 17.193,15.376 15.987,15.376Z" style="fill:white;fill-rule:nonzero;"/>
</svg>
