<?xml version="1.0" encoding="UTF-8" standalone="no"?>
<!DOCTYPE svg PUBLIC "-//W3C//DTD SVG 1.1//EN" "http://www.w3.org/Graphics/SVG/1.1/DTD/svg11.dtd">
<svg width="100%" height="100%" viewBox="0 0 24 24" version="1.1" xmlns="http://www.w3.org/2000/svg" xmlns:xlink="http://www.w3.org/1999/xlink" xml:space="preserve" xmlns:serif="http://www.serif.com/" style="fill-rule:evenodd;clip-rule:evenodd;stroke-linejoin:round;stroke-miterlimit:2;">
    <path d="M12,0C5.373,0 -0.048,5.41 -0.048,12.072C-0.048,18.096 4.361,23.096 10.12,24L10.12,15.566L7.06,15.566L7.06,12.072L10.12,12.072L10.12,9.41C10.12,6.386 11.916,4.723 14.675,4.723C15.988,4.723 17.361,4.952 17.361,4.952L17.361,7.928L15.843,7.928C14.349,7.928 13.88,8.855 13.88,9.807L13.88,12.072L17.229,12.072L16.687,15.566L13.88,15.566L13.88,24C19.72,23.078 24.061,17.985 24.048,12.072C24.048,5.41 18.626,0 12,0Z" style="fill:white;fill-rule:nonzero;"/>
</svg>
