<?xml version="1.0" encoding="UTF-8" standalone="no"?>
<!DOCTYPE svg PUBLIC "-//W3C//DTD SVG 1.1//EN" "http://www.w3.org/Graphics/SVG/1.1/DTD/svg11.dtd">
<svg width="100%" height="100%" viewBox="0 0 24 24" version="1.1" xmlns="http://www.w3.org/2000/svg" xmlns:xlink="http://www.w3.org/1999/xlink" xml:space="preserve" xmlns:serif="http://www.serif.com/" style="fill-rule:evenodd;clip-rule:evenodd;stroke-linejoin:round;stroke-miterlimit:2;">
    <path d="M12,0.291C5.417,0.291 0,5.708 0,12.291C0,17.595 3.444,22.095 8.208,23.691C8.808,23.787 9,23.415 9,23.091L9,21.063C5.676,21.783 4.968,19.455 4.968,19.455C4.416,18.063 3.636,17.691 3.636,17.691C2.544,16.947 3.72,16.971 3.72,16.971C4.92,17.055 5.556,18.207 5.556,18.207C6.6,20.031 8.364,19.491 9.048,19.203C9.156,18.423 9.468,17.895 9.804,17.595C7.14,17.295 4.344,16.263 4.344,11.691C4.344,10.359 4.8,9.291 5.58,8.439C5.46,8.139 5.04,6.891 5.7,5.271C5.7,5.271 6.708,4.947 9,6.495C9.948,6.231 10.98,6.099 12,6.099C13.02,6.099 14.052,6.231 15,6.495C17.292,4.947 18.3,5.271 18.3,5.271C18.96,6.891 18.54,8.139 18.42,8.439C19.2,9.291 19.656,10.359 19.656,11.691C19.656,16.275 16.848,17.283 14.172,17.583C14.604,17.955 15,18.687 15,19.803L15,23.091C15,23.415 15.192,23.799 15.804,23.691C20.568,22.083 24,17.595 24,12.291C24,5.708 18.583,0.291 12,0.291Z" style="fill:white;fill-rule:nonzero;"/>
</svg>
