<?xml version="1.0" encoding="UTF-8" standalone="no"?>
<!DOCTYPE svg PUBLIC "-//W3C//DTD SVG 1.1//EN" "http://www.w3.org/Graphics/SVG/1.1/DTD/svg11.dtd">
<svg width="100%" height="100%" viewBox="0 0 24 24" version="1.1" xmlns="http://www.w3.org/2000/svg" xmlns:xlink="http://www.w3.org/1999/xlink" xml:space="preserve" xmlns:serif="http://www.serif.com/" style="fill-rule:evenodd;clip-rule:evenodd;stroke-linejoin:round;stroke-miterlimit:2;">
    <path d="M23.956,13.336L22.693,9.463C22.693,9.427 22.681,9.391 22.669,9.355L20.131,1.561C19.998,1.176 19.614,0.875 19.169,0.875C18.736,0.875 18.351,1.176 18.218,1.573L15.813,8.994L8.199,8.994L5.782,1.573C5.649,1.176 5.264,0.875 4.831,0.875C4.386,0.875 4.002,1.176 3.869,1.573L1.331,9.379L1.331,9.391L0.044,13.336C-0.148,13.937 0.056,14.587 0.574,14.948L11.663,23.018C11.868,23.163 12.132,23.163 12.337,23.006L23.426,14.948C23.944,14.587 24.148,13.937 23.956,13.336M7.369,10.136L10.46,19.65L3.039,10.136M13.54,19.662L16.51,10.533L16.631,10.136L20.973,10.136L14.249,18.748M19.181,2.306L21.358,8.994L17.004,8.994M15.44,10.136L13.287,16.764L12,20.709L8.56,10.136M4.819,2.306L6.996,8.994L2.654,8.994M1.235,14.033C1.127,13.949 1.079,13.805 1.127,13.685L2.077,10.762L9.077,19.723M22.765,14.033L14.935,19.723L14.959,19.687L21.923,10.762L22.873,13.685C22.921,13.805 22.873,13.949 22.765,14.033" style="fill:white;fill-rule:nonzero;"/>
</svg>
