<?xml version="1.0" encoding="UTF-8" standalone="no"?>
<!DOCTYPE svg PUBLIC "-//W3C//DTD SVG 1.1//EN" "http://www.w3.org/Graphics/SVG/1.1/DTD/svg11.dtd">
<svg width="100%" height="100%" viewBox="0 0 24 24" version="1.1" xmlns="http://www.w3.org/2000/svg" xmlns:xlink="http://www.w3.org/1999/xlink" xml:space="preserve" xmlns:serif="http://www.serif.com/" style="fill-rule:evenodd;clip-rule:evenodd;stroke-linejoin:round;stroke-miterlimit:2;">
    <path d="M6.96,0L17.04,0C20.88,0 24,3.12 24,6.96L24,17.04C24,20.858 20.858,24 17.04,24L6.96,24C3.12,24 0,20.88 0,17.04L0,6.96C0,3.142 3.142,0 6.96,0M6.72,2.4C4.35,2.4 2.4,4.35 2.4,6.72L2.4,17.28C2.4,19.668 4.332,21.6 6.72,21.6L17.28,21.6C19.65,21.6 21.6,19.65 21.6,17.28L21.6,6.72C21.6,4.332 19.668,2.4 17.28,2.4L6.72,2.4M18.3,4.2C19.123,4.2 19.8,4.877 19.8,5.7C19.8,6.523 19.123,7.2 18.3,7.2C17.477,7.2 16.8,6.523 16.8,5.7C16.8,4.877 17.477,4.2 18.3,4.2M12,6C15.292,6 18,8.708 18,12C18,15.292 15.292,18 12,18C8.708,18 6,15.292 6,12C6,8.708 8.708,6 12,6M12,8.4C10.025,8.4 8.4,10.025 8.4,12C8.4,13.975 10.025,15.6 12,15.6C13.975,15.6 15.6,13.975 15.6,12C15.6,10.025 13.975,8.4 12,8.4Z" style="fill:white;fill-rule:nonzero;"/>
</svg>
