<?xml version="1.0" encoding="UTF-8" standalone="no"?>
<!DOCTYPE svg PUBLIC "-//W3C//DTD SVG 1.1//EN" "http://www.w3.org/Graphics/SVG/1.1/DTD/svg11.dtd">
<svg width="100%" height="100%" viewBox="0 0 24 24" version="1.1" xmlns="http://www.w3.org/2000/svg" xmlns:xlink="http://www.w3.org/1999/xlink" xml:space="preserve" xmlns:serif="http://www.serif.com/" style="fill-rule:evenodd;clip-rule:evenodd;stroke-linejoin:round;stroke-miterlimit:2;">
    <path d="M21.333,-0C22.796,-0 24,1.204 24,2.667L24,21.333C24,22.796 22.796,24 21.333,24L2.667,24C1.204,24 -0,22.796 -0,21.333L-0,2.667C-0,1.204 1.204,-0 2.667,-0L21.333,-0M20.667,20.667L20.667,13.6C20.667,11.215 18.705,9.253 16.32,9.253C15.187,9.253 13.867,9.947 13.227,10.987L13.227,9.507L9.507,9.507L9.507,20.667L13.227,20.667L13.227,14.093C13.227,13.067 14.053,12.227 15.08,12.227C16.104,12.227 16.947,13.069 16.947,14.093L16.947,20.667L20.667,20.667M5.173,7.413C6.402,7.413 7.413,6.402 7.413,5.173C7.413,3.933 6.413,2.92 5.173,2.92C3.937,2.92 2.92,3.937 2.92,5.173C2.92,6.413 3.933,7.413 5.173,7.413M7.027,20.667L7.027,9.507L3.333,9.507L3.333,20.667L7.027,20.667Z" style="fill:white;fill-rule:nonzero;"/>
</svg>
