<?xml version="1.0" encoding="UTF-8" standalone="no"?>
<!DOCTYPE svg PUBLIC "-//W3C//DTD SVG 1.1//EN" "http://www.w3.org/Graphics/SVG/1.1/DTD/svg11.dtd">
<svg width="100%" height="100%" viewBox="0 0 24 24" version="1.1" xmlns="http://www.w3.org/2000/svg" xmlns:xlink="http://www.w3.org/1999/xlink" xml:space="preserve" xmlns:serif="http://www.serif.com/" style="fill-rule:evenodd;clip-rule:evenodd;stroke-linejoin:round;stroke-miterlimit:2;">
    <path id="Layer" d="M21.327,8.169C21.81,8.699 22.193,9.313 22.454,9.981C22.713,10.65 22.847,11.36 22.848,12.079C22.85,12.796 22.719,13.507 22.461,14.176C22.204,14.845 21.824,15.461 21.342,15.993C20.48,16.943 19.549,17.829 18.556,18.643C17.563,19.456 16.512,20.194 15.409,20.853C14.308,21.509 13.158,22.085 11.971,22.573C10.784,23.061 9.562,23.462 8.316,23.769C7.681,23.929 7.019,23.964 6.371,23.872C5.722,23.78 5.097,23.564 4.53,23.234C3.962,22.906 3.465,22.471 3.063,21.954C2.662,21.436 2.364,20.845 2.186,20.215C0.674,15.048 0.897,9.206 2.355,4.016C3.123,1.29 5.689,-0.421 8.331,0.209C13.225,1.375 17.816,4.377 21.327,8.169ZM14.437,13.535C15.359,12.806 15.359,11.386 14.437,10.634C14.11,10.362 13.774,10.1 13.431,9.849C13.087,9.597 12.736,9.356 12.378,9.126C12.02,8.896 11.656,8.676 11.284,8.467C10.913,8.26 10.535,8.063 10.151,7.877C9.092,7.371 7.91,8.077 7.739,9.282C7.479,11.125 7.432,12.983 7.602,14.748C7.717,15.97 8.884,16.699 9.96,16.231C10.361,16.058 10.755,15.872 11.144,15.673C11.533,15.474 11.914,15.262 12.289,15.037C12.664,14.812 13.03,14.575 13.389,14.326C13.747,14.077 14.097,13.816 14.437,13.543L14.437,13.535Z" style="fill:white;"/>
</svg>
