<?xml version="1.0" encoding="UTF-8" standalone="no"?>
<!DOCTYPE svg PUBLIC "-//W3C//DTD SVG 1.1//EN" "http://www.w3.org/Graphics/SVG/1.1/DTD/svg11.dtd">
<svg width="100%" height="100%" viewBox="0 0 24 24" version="1.1" xmlns="http://www.w3.org/2000/svg" xmlns:xlink="http://www.w3.org/1999/xlink" xml:space="preserve" xmlns:serif="http://www.serif.com/" style="fill-rule:evenodd;clip-rule:evenodd;stroke-linejoin:round;stroke-miterlimit:2;">
    <path d="M5.053,15.158C5.053,16.544 3.912,17.684 2.526,17.684C1.14,17.684 -0,16.544 -0,15.158C-0,13.772 1.14,12.632 2.526,12.632L5.053,12.632L5.053,15.158M6.316,15.158C6.316,13.772 7.456,12.632 8.842,12.632C10.228,12.632 11.368,13.772 11.368,15.158L11.368,21.474C11.368,22.86 10.228,24 8.842,24C7.456,24 6.316,22.86 6.316,21.474L6.316,15.158M8.842,5.053C7.456,5.053 6.316,3.912 6.316,2.526C6.316,1.14 7.456,0 8.842,0C10.228,0 11.368,1.14 11.368,2.526L11.368,5.053L8.842,5.053M8.842,6.316C10.228,6.316 11.368,7.456 11.368,8.842C11.368,10.228 10.228,11.368 8.842,11.368L2.526,11.368C1.14,11.368 -0,10.228 -0,8.842C-0,7.456 1.14,6.316 2.526,6.316L8.842,6.316M18.947,8.842C18.947,7.456 20.088,6.316 21.474,6.316C22.86,6.316 24,7.456 24,8.842C24,10.228 22.86,11.368 21.474,11.368L18.947,11.368L18.947,8.842M17.684,8.842C17.684,10.228 16.544,11.368 15.158,11.368C13.772,11.368 12.632,10.228 12.632,8.842L12.632,2.526C12.632,1.14 13.772,0 15.158,0C16.544,0 17.684,1.14 17.684,2.526L17.684,8.842M15.158,18.947C16.544,18.947 17.684,20.088 17.684,21.474C17.684,22.86 16.544,24 15.158,24C13.772,24 12.632,22.86 12.632,21.474L12.632,18.947L15.158,18.947M15.158,17.684C13.772,17.684 12.632,16.544 12.632,15.158C12.632,13.772 13.772,12.632 15.158,12.632L21.474,12.632C22.86,12.632 24,13.772 24,15.158C24,16.544 22.86,17.684 21.474,17.684L15.158,17.684Z" style="fill:white;fill-rule:nonzero;"/>
</svg>
