<?xml version="1.0" encoding="UTF-8" standalone="no"?>
<!DOCTYPE svg PUBLIC "-//W3C//DTD SVG 1.1//EN" "http://www.w3.org/Graphics/SVG/1.1/DTD/svg11.dtd">
<svg width="100%" height="100%" viewBox="0 0 500 500" version="1.1" xmlns="http://www.w3.org/2000/svg" xmlns:xlink="http://www.w3.org/1999/xlink" xml:space="preserve" xmlns:serif="http://www.serif.com/" style="fill-rule:evenodd;clip-rule:evenodd;stroke-linejoin:round;stroke-miterlimit:2;">
    <g transform="matrix(25.7895,0,0,25.7895,-46.5789,-72.3684)">
        <path d="M6,15C6,16.097 5.097,17 4,17C2.903,17 2,16.097 2,15C2,13.903 2.903,13 4,13L6,13L6,15M7,15C7,13.903 7.903,13 9,13C10.097,13 11,13.903 11,15L11,20C11,21.097 10.097,22 9,22C7.903,22 7,21.097 7,20L7,15M9,7C7.903,7 7,6.097 7,5C7,3.903 7.903,3 9,3C10.097,3 11,3.903 11,5L11,7L9,7M9,8C10.097,8 11,8.903 11,10C11,11.097 10.097,12 9,12L4,12C2.903,12 2,11.097 2,10C2,8.903 2.903,8 4,8L9,8M17,10C17,8.903 17.903,8 19,8C20.097,8 21,8.903 21,10C21,11.097 20.097,12 19,12L17,12L17,10M16,10C16,11.097 15.097,12 14,12C12.903,12 12,11.097 12,10L12,5C12,3.903 12.903,3 14,3C15.097,3 16,3.903 16,5L16,10M14,18C15.097,18 16,18.903 16,20C16,21.097 15.097,22 14,22C12.903,22 12,21.097 12,20L12,18L14,18M14,17C12.903,17 12,16.097 12,15C12,13.903 12.903,13 14,13L19,13C20.097,13 21,13.903 21,15C21,16.097 20.097,17 19,17L14,17Z" style="fill:white;fill-rule:nonzero;"/>
    </g>
</svg>
