<?xml version="1.0" encoding="UTF-8" standalone="no"?>
<!DOCTYPE svg PUBLIC "-//W3C//DTD SVG 1.1//EN" "http://www.w3.org/Graphics/SVG/1.1/DTD/svg11.dtd">
<svg width="100%" height="100%" viewBox="0 0 24 24" version="1.1" xmlns="http://www.w3.org/2000/svg" xmlns:xlink="http://www.w3.org/1999/xlink" xml:space="preserve" xmlns:serif="http://www.serif.com/" style="fill-rule:evenodd;clip-rule:evenodd;stroke-linejoin:round;stroke-miterlimit:2;">
    <path d="M23.915,17.471C23.747,17.015 23.399,16.799 23.063,16.571C23.003,16.535 22.931,16.499 22.883,16.475C22.799,16.415 22.667,16.367 22.559,16.307C21.432,15.707 20.544,14.951 19.932,14.063C19.764,13.8 19.62,13.548 19.488,13.272C19.44,13.116 19.44,13.032 19.476,12.96C19.512,12.9 19.56,12.84 19.62,12.804C19.8,12.672 20.016,12.552 20.148,12.456C20.4,12.3 20.58,12.18 20.7,12.096C21.168,11.772 21.492,11.4 21.696,11.04C21.984,10.5 22.02,9.865 21.792,9.301C21.492,8.497 20.724,7.993 19.8,7.993C19.608,7.993 19.416,8.017 19.2,8.053C19.2,8.065 19.128,8.077 19.08,8.089C19.08,7.537 19.068,6.961 19.02,6.385C18.852,4.37 18.145,3.314 17.401,2.474C16.933,1.947 16.381,1.491 15.769,1.143C14.653,0.507 13.382,0.183 12.002,0.183C10.622,0.183 9.363,0.507 8.247,1.143C7.623,1.491 7.071,1.947 6.604,2.474C5.86,3.314 5.164,4.37 4.984,6.385C4.936,6.961 4.924,7.537 4.936,8.089C4.876,8.077 4.804,8.065 4.804,8.053C4.588,8.017 4.396,7.993 4.204,7.993C3.28,7.993 2.513,8.497 2.213,9.301C1.985,9.865 2.021,10.5 2.309,11.04C2.513,11.4 2.837,11.772 3.304,12.096C3.424,12.18 3.604,12.3 3.856,12.468L4.36,12.792C4.432,12.84 4.48,12.9 4.528,12.96C4.564,13.044 4.564,13.128 4.504,13.284C4.384,13.56 4.24,13.8 4.072,14.063C3.472,14.939 2.621,15.683 1.529,16.271C0.941,16.583 0.341,16.799 0.089,17.471C-0.103,17.998 0.005,18.598 0.509,19.09C0.689,19.27 0.893,19.426 1.121,19.546C1.601,19.798 2.105,20.014 2.621,20.146C2.729,20.182 2.837,20.218 2.92,20.29C3.1,20.434 3.076,20.674 3.316,20.998C3.436,21.19 3.604,21.346 3.76,21.466C4.252,21.813 4.804,21.825 5.404,21.849C5.932,21.873 6.532,21.897 7.203,22.125C7.515,22.197 7.803,22.401 8.151,22.617C9.003,23.121 10.107,23.817 12.002,23.817C13.886,23.817 15.001,23.121 15.865,22.605C16.201,22.401 16.501,22.197 16.801,22.125C17.461,21.897 18.073,21.873 18.6,21.849C19.2,21.837 19.752,21.813 20.244,21.466C20.448,21.322 20.616,21.13 20.748,20.914C20.916,20.626 20.916,20.398 21.072,20.29C21.156,20.23 21.252,20.182 21.36,20.158C21.888,20.014 22.391,19.798 22.871,19.546C23.123,19.414 23.339,19.246 23.519,19.042L23.531,19.042C23.999,18.55 24.095,17.998 23.915,17.471M22.235,18.37C21.204,18.934 20.52,18.874 19.992,19.198C19.8,19.342 19.74,19.534 19.704,19.726C19.692,19.798 19.68,19.894 19.668,19.966C19.644,20.134 19.608,20.278 19.488,20.362C19.08,20.638 17.893,20.338 16.357,20.842C15.085,21.262 14.282,22.473 12.002,22.473C9.723,22.473 8.943,21.274 7.647,20.842C6.124,20.338 4.924,20.638 4.528,20.362C4.204,20.134 4.468,19.51 4.012,19.198C3.484,18.874 2.801,18.934 1.805,18.37C1.433,18.178 1.373,17.998 1.421,17.914C1.469,17.806 1.613,17.723 1.709,17.675C3.688,16.727 4.804,15.491 5.368,14.519C5.896,13.656 6.004,12.996 6.04,12.9C6.076,12.648 6.112,12.456 5.836,12.204C5.572,11.952 4.396,11.232 4.072,11.004C3.52,10.62 3.292,10.248 3.46,9.781C3.604,9.457 3.88,9.337 4.204,9.337C4.3,9.337 4.396,9.349 4.492,9.373C5.092,9.493 5.668,9.793 6.004,9.877C6.04,9.889 6.076,9.889 6.124,9.889C6.232,9.889 6.292,9.853 6.328,9.781C6.34,9.733 6.352,9.673 6.352,9.601C6.304,8.953 6.22,7.693 6.316,6.505C6.364,6.002 6.448,5.57 6.556,5.198C6.795,4.382 7.203,3.842 7.611,3.35C7.911,3.002 9.303,1.527 12.002,1.527C14.222,1.527 15.553,2.534 16.129,3.074C16.249,3.194 16.345,3.29 16.393,3.35C16.849,3.878 17.257,4.454 17.497,5.366C17.581,5.69 17.653,6.074 17.689,6.505C17.785,7.681 17.701,8.953 17.653,9.601C17.653,9.649 17.653,9.697 17.665,9.733C17.677,9.841 17.749,9.889 17.881,9.889C17.929,9.889 17.965,9.889 18.001,9.877C18.336,9.793 18.912,9.493 19.512,9.361C19.608,9.349 19.704,9.337 19.8,9.337C20.1,9.337 20.4,9.445 20.52,9.721L20.532,9.769L20.544,9.769L20.544,9.781C20.724,10.236 20.484,10.62 19.944,10.992C19.62,11.22 18.432,11.952 18.169,12.192C17.893,12.456 17.929,12.648 17.965,12.9C18.001,13.02 18.217,14.159 19.296,15.431C19.956,16.199 20.904,17.003 22.295,17.675C22.379,17.711 22.487,17.771 22.547,17.842C22.583,17.902 22.607,17.95 22.595,17.998C22.583,18.118 22.475,18.238 22.235,18.37Z" style="fill:white;fill-rule:nonzero;"/>
</svg>
