<?xml version="1.0" encoding="UTF-8" standalone="no"?>
<!DOCTYPE svg PUBLIC "-//W3C//DTD SVG 1.1//EN" "http://www.w3.org/Graphics/SVG/1.1/DTD/svg11.dtd">
<svg width="100%" height="100%" viewBox="0 0 24 24" version="1.1" xmlns="http://www.w3.org/2000/svg" xmlns:xlink="http://www.w3.org/1999/xlink" xml:space="preserve" xmlns:serif="http://www.serif.com/" style="fill-rule:evenodd;clip-rule:evenodd;stroke-linejoin:round;stroke-miterlimit:2;">
    <path d="M12,0C18.583,0 24,5.417 24,12C24,18.583 18.583,24 12,24C6.48,24 1.86,20.304 0.432,15.276L5.028,17.172C5.34,18.72 6.72,19.896 8.364,19.896C10.236,19.896 11.76,18.372 11.76,16.5L11.76,16.344L15.84,13.428L15.936,13.428C18.432,13.428 20.46,11.4 20.46,8.904C20.46,6.408 18.432,4.38 15.936,4.38C13.44,4.38 11.4,6.408 11.4,8.904L11.4,8.964L8.556,13.116L8.364,13.104C7.656,13.104 6.996,13.32 6.456,13.692L0,11.04C0.516,4.86 5.676,0 12,0M7.536,18.204C8.496,18.6 9.6,18.156 9.996,17.196C10.392,16.236 9.936,15.144 9,14.748L7.464,14.112C8.052,13.896 8.712,13.884 9.336,14.148C9.972,14.4 10.464,14.892 10.716,15.528C10.98,16.152 10.98,16.848 10.716,17.472C10.2,18.768 8.676,19.392 7.38,18.852C6.78,18.6 6.324,18.144 6.072,17.604L7.536,18.204M18.96,8.904C18.96,10.572 17.604,11.928 15.936,11.928C14.28,11.928 12.924,10.572 12.924,8.904C12.924,8.9 12.924,8.896 12.924,8.892C12.924,7.246 14.278,5.892 15.924,5.892C15.928,5.892 15.932,5.892 15.936,5.892C17.604,5.892 18.96,7.248 18.96,8.904M13.68,8.904C13.68,10.152 14.688,11.172 15.948,11.172C17.196,11.172 18.204,10.152 18.204,8.904C18.204,7.656 17.196,6.636 15.948,6.636C14.688,6.636 13.68,7.656 13.68,8.904Z" style="fill:white;fill-rule:nonzero;"/>
</svg>
