<?xml version="1.0" encoding="UTF-8" standalone="no"?>
<!DOCTYPE svg PUBLIC "-//W3C//DTD SVG 1.1//EN" "http://www.w3.org/Graphics/SVG/1.1/DTD/svg11.dtd">
<svg width="100%" height="100%" viewBox="0 0 24 24" version="1.1" xmlns="http://www.w3.org/2000/svg" xmlns:xlink="http://www.w3.org/1999/xlink" xml:space="preserve" xmlns:serif="http://www.serif.com/" style="fill-rule:evenodd;clip-rule:evenodd;stroke-linejoin:round;stroke-miterlimit:2;">
    <path d="M12.35,-0C12.15,-0 11.966,0.108 11.866,0.282C11.766,0.457 11.769,0.671 11.872,0.844C11.879,0.856 12.629,2.136 12.629,3.627C12.629,4.461 12.256,5.147 11.86,5.872C11.414,6.688 10.955,7.531 10.955,8.65C10.955,9.854 12.293,10.86 13.986,12.134C16.097,13.723 18.49,15.523 18.49,17.86C18.49,19.911 17.648,21.789 16.179,23.012C15.954,23.201 15.912,23.534 16.085,23.771C16.194,23.92 16.365,23.999 16.538,23.999C16.64,23.999 16.744,23.971 16.836,23.913C20.172,21.79 21.145,18.857 21.374,16.771C21.66,14.167 20.921,11.745 20.01,10.543C20.477,9.633 20.594,8.519 20.318,7.483C20.032,6.403 19.354,5.528 18.461,5.081C18.245,4.974 17.988,5.016 17.818,5.187C17.647,5.357 17.605,5.616 17.712,5.83C18.012,6.429 18.112,7.478 17.774,8.024C17.627,8.261 17.411,8.371 17.095,8.371C16.613,8.371 16.447,8.182 16.393,8.12C15.956,7.618 16.124,6.392 16.205,5.803C16.236,5.58 16.258,5.405 16.258,5.303C16.258,3.141 14.735,-0 12.35,-0ZM10.87,1.122C10.598,1.164 10.397,1.398 10.397,1.673C10.397,2.862 9.273,3.805 7.973,4.897C6.231,6.361 4.257,8.02 4.257,10.883C4.257,12.513 5.891,13.996 7.331,15.305C8.2,16.094 9.28,17.075 9.28,17.581C9.28,17.998 8.936,18.418 8.164,18.418C5.386,18.418 4.164,15.186 3.682,13.26C3.615,12.991 3.36,12.815 3.086,12.84C2.81,12.867 2.596,13.092 2.584,13.369C2.422,16.814 3.246,19.51 5.034,21.384C7.41,23.874 10.616,24 11.234,24C13.814,24 17.653,22.663 17.653,18.977C17.653,15.929 15.143,14.075 12.929,12.438C11.34,11.263 9.839,10.153 9.839,8.93C9.839,7.495 10.342,6.478 10.829,5.496C11.405,4.333 12,3.131 11.487,1.506C11.404,1.242 11.144,1.081 10.87,1.122Z" style="fill-rule:nonzero;"/>
</svg>
