<?xml version="1.0" encoding="UTF-8" standalone="no"?>
<!DOCTYPE svg PUBLIC "-//W3C//DTD SVG 1.1//EN" "http://www.w3.org/Graphics/SVG/1.1/DTD/svg11.dtd">
<svg width="100%" height="100%" viewBox="0 0 500 500" version="1.1" xmlns="http://www.w3.org/2000/svg" xmlns:xlink="http://www.w3.org/1999/xlink" xml:space="preserve" xmlns:serif="http://www.serif.com/" style="fill-rule:evenodd;clip-rule:evenodd;stroke-linejoin:round;stroke-miterlimit:2;">
    <g transform="matrix(1.13959,0,0,1.13959,-33.441,-29.2099)">
        <path d="M255,30.02C251.41,30.02 248.108,31.948 246.328,35.078C244.538,38.198 244.586,42.047 246.426,45.137C246.556,45.347 260,68.29 260,95C260,109.95 253.301,122.225 246.211,135.215C238.231,149.835 230,164.95 230,185C230,206.56 253.967,224.582 284.297,247.402C322.127,275.872 365,308.12 365,350C365,386.74 349.914,420.385 323.594,442.305C319.554,445.685 318.804,451.648 321.914,455.898C323.864,458.568 326.92,459.98 330.02,459.98C331.86,459.98 333.711,459.487 335.371,458.438C395.131,420.408 412.56,367.858 416.66,330.488C421.79,283.838 408.557,240.446 392.227,218.906C400.587,202.606 402.684,182.652 397.754,164.082C392.614,144.742 380.483,129.065 364.473,121.055C360.613,119.125 355.999,119.879 352.949,122.949C349.899,125.999 349.135,130.633 351.055,134.473C356.425,145.203 358.218,164 352.168,173.77C349.538,178.03 345.66,180 340,180C331.37,180 328.402,176.598 327.422,175.488C319.592,166.508 322.612,144.534 324.063,133.984C324.613,129.994 325,126.86 325,125.02C325,86.29 297.73,30.02 255,30.02ZM228.477,50.117C223.597,50.867 220,55.07 220,60C220,81.29 199.872,98.184 176.582,117.754C145.372,143.974 110,173.7 110,225C110,254.2 139.268,280.769 165.078,304.219C180.638,318.349 200,335.94 200,345C200,352.47 193.82,360 180,360C130.23,360 108.337,302.088 99.707,267.578C98.507,262.768 93.923,259.609 89.023,260.059C84.083,260.549 80.25,264.581 80.02,269.531C77.13,331.251 91.896,379.565 123.926,413.125C166.486,457.745 223.92,460 235,460C281.23,460 350,436.04 350,370C350,315.41 305.041,282.182 265.371,252.852C236.891,231.812 210,211.92 210,190C210,164.29 219.014,146.077 227.734,128.477C238.054,107.657 248.731,86.122 239.531,56.992C238.051,52.272 233.387,49.387 228.477,50.117Z" style="fill-rule:nonzero;"/>
    </g>
</svg>
