<?xml version="1.0" encoding="UTF-8" standalone="no"?>
<!DOCTYPE svg PUBLIC "-//W3C//DTD SVG 1.1//EN" "http://www.w3.org/Graphics/SVG/1.1/DTD/svg11.dtd">
<svg width="100%" height="100%" viewBox="0 0 24 24" version="1.1" xmlns="http://www.w3.org/2000/svg" xmlns:xlink="http://www.w3.org/1999/xlink" xml:space="preserve" xmlns:serif="http://www.serif.com/" style="fill-rule:evenodd;clip-rule:evenodd;stroke-linejoin:round;stroke-miterlimit:2;">
    <path d="M19.81,5.133C19.648,5.049 19.49,4.957 19.338,4.858C18.893,4.564 18.486,4.218 18.124,3.827C17.219,2.791 16.881,1.741 16.757,1.005L16.762,1.005C16.658,0.395 16.701,0 16.707,0L12.585,0L12.585,15.938C12.585,16.152 12.585,16.364 12.576,16.573C12.576,16.599 12.574,16.623 12.572,16.651C12.572,16.662 12.572,16.674 12.57,16.686L12.57,16.695C12.482,17.855 11.821,18.898 10.809,19.473C10.289,19.769 9.702,19.924 9.104,19.923C7.183,19.923 5.627,18.357 5.627,16.423C5.627,14.489 7.183,12.923 9.104,12.923C9.467,12.923 9.828,12.98 10.174,13.093L10.179,8.896C8.059,8.622 5.918,9.249 4.279,10.622C3.569,11.239 2.972,11.976 2.515,12.798C2.341,13.098 1.684,14.304 1.605,16.26C1.555,17.371 1.888,18.521 2.047,18.997L2.047,19.007C2.147,19.287 2.535,20.242 3.166,21.047C3.675,21.694 4.277,22.261 4.951,22.732L4.951,22.722L4.961,22.732C6.957,24.088 9.169,23.999 9.169,23.999C9.552,23.983 10.835,23.999 12.292,23.308C13.908,22.543 14.828,21.402 14.828,21.402C15.416,20.721 15.883,19.944 16.21,19.106C16.583,18.126 16.707,16.95 16.707,16.48L16.707,8.024C16.757,8.054 17.423,8.495 17.423,8.495C17.423,8.495 18.383,9.11 19.88,9.51C20.954,9.795 22.401,9.855 22.401,9.855L22.401,5.763C21.894,5.818 20.864,5.658 19.81,5.133Z" style="fill:white;fill-rule:nonzero;"/>
</svg>
