<?xml version="1.0" encoding="UTF-8" standalone="no"?>
<!DOCTYPE svg PUBLIC "-//W3C//DTD SVG 1.1//EN" "http://www.w3.org/Graphics/SVG/1.1/DTD/svg11.dtd">
<svg width="100%" height="100%" viewBox="0 0 24 24" version="1.1" xmlns="http://www.w3.org/2000/svg" xmlns:xlink="http://www.w3.org/1999/xlink" xml:space="preserve" xmlns:serif="http://www.serif.com/" style="fill-rule:evenodd;clip-rule:evenodd;stroke-linejoin:round;stroke-miterlimit:2;">
    <path d="M24,5.043C23.117,5.445 22.164,5.708 21.178,5.835C22.187,5.227 22.967,4.263 23.335,3.104C22.382,3.678 21.327,4.079 20.214,4.309C19.308,3.322 18.034,2.749 16.589,2.749C13.893,2.749 11.69,4.951 11.69,7.67C11.69,8.06 11.736,8.439 11.816,8.794C7.732,8.588 4.096,6.626 1.675,3.655C1.25,4.378 1.01,5.227 1.01,6.121C1.01,7.831 1.87,9.345 3.201,10.206C2.386,10.206 1.629,9.976 0.964,9.632L0.964,9.666C0.964,12.053 2.662,14.049 4.91,14.496C4.497,14.611 4.061,14.668 3.614,14.668C3.304,14.668 2.994,14.634 2.696,14.576C3.315,16.515 5.117,17.961 7.285,17.995C5.61,19.326 3.488,20.106 1.17,20.106C0.78,20.106 0.39,20.083 0,20.037C2.18,21.437 4.772,22.251 7.549,22.251C16.589,22.251 21.556,14.749 21.556,8.244C21.556,8.026 21.556,7.819 21.545,7.601C22.509,6.913 23.335,6.041 24,5.043Z" style="fill:white;fill-rule:nonzero;"/>
</svg>
