<?xml version="1.0" encoding="UTF-8" standalone="no"?>
<!DOCTYPE svg PUBLIC "-//W3C//DTD SVG 1.1//EN" "http://www.w3.org/Graphics/SVG/1.1/DTD/svg11.dtd">
<svg width="100%" height="100%" viewBox="0 0 24 24" version="1.1" xmlns="http://www.w3.org/2000/svg" xmlns:xlink="http://www.w3.org/1999/xlink" xml:space="preserve" xmlns:serif="http://www.serif.com/" style="fill-rule:evenodd;clip-rule:evenodd;stroke-linejoin:round;stroke-miterlimit:2;">
    <path d="M12.048,0C5.496,0 0.156,5.34 0.156,11.892C0.156,13.992 0.708,16.032 1.74,17.832L0.06,24L6.36,22.344C8.1,23.292 10.056,23.796 12.048,23.796C18.6,23.796 23.94,18.456 23.94,11.904C23.94,8.724 22.704,5.736 20.46,3.492C18.216,1.236 15.228,0 12.048,0M12.06,2.004C14.7,2.004 17.172,3.036 19.044,4.908C20.904,6.78 21.936,9.264 21.936,11.904C21.936,17.352 17.496,21.78 12.048,21.78C10.272,21.78 8.532,21.312 7.02,20.4L6.66,20.196L2.916,21.18L3.912,17.532L3.672,17.148C2.688,15.6 2.16,13.764 2.16,11.892C2.172,6.444 6.6,2.004 12.06,2.004M7.836,6.396C7.644,6.396 7.32,6.468 7.044,6.768C6.78,7.068 6,7.8 6,9.252C6,10.716 7.068,12.12 7.2,12.324C7.368,12.528 9.312,15.528 12.3,16.8C13.008,17.124 13.56,17.304 13.992,17.436C14.7,17.664 15.348,17.628 15.864,17.556C16.44,17.472 17.616,16.836 17.868,16.14C18.12,15.444 18.12,14.856 18.048,14.724C17.964,14.604 17.772,14.532 17.472,14.4C17.172,14.232 15.708,13.512 15.444,13.416C15.168,13.32 15,13.272 14.772,13.56C14.58,13.86 14.004,14.532 13.836,14.724C13.656,14.928 13.488,14.952 13.2,14.808C12.888,14.652 11.928,14.34 10.8,13.332C9.912,12.54 9.324,11.568 9.144,11.268C9,10.98 9.132,10.8 9.276,10.668C9.408,10.536 9.6,10.32 9.72,10.14C9.876,9.972 9.924,9.84 10.02,9.648C10.116,9.444 10.068,9.276 9.996,9.132C9.924,9 9.324,7.512 9.072,6.924C8.832,6.348 8.592,6.42 8.4,6.408C8.232,6.408 8.04,6.396 7.836,6.396Z" style="fill:white;fill-rule:nonzero;"/>
</svg>
