<?xml version="1.0" encoding="UTF-8" standalone="no"?>
<!DOCTYPE svg PUBLIC "-//W3C//DTD SVG 1.1//EN" "http://www.w3.org/Graphics/SVG/1.1/DTD/svg11.dtd">
<svg width="100%" height="100%" viewBox="0 0 24 24" version="1.1" xmlns="http://www.w3.org/2000/svg" xmlns:xlink="http://www.w3.org/1999/xlink" xml:space="preserve" xmlns:serif="http://www.serif.com/" style="fill-rule:evenodd;clip-rule:evenodd;stroke-linejoin:round;stroke-miterlimit:2;">
    <path id="XMLID_42_" d="M12,0.5C18.35,0.5 23.5,5.65 23.5,12C23.5,18.35 18.35,23.5 12,23.5C5.65,23.5 0.5,18.35 0.5,12C0.5,5.65 5.65,0.5 12,0.5ZM12,2C6.481,2 2,6.481 2,12C2,17.519 6.481,22 12,22C17.519,22 22,17.519 22,12C22,6.481 17.519,2 12,2ZM12,3.304C16.799,3.304 20.696,7.201 20.696,12C20.696,16.799 16.799,20.696 12,20.696C7.201,20.696 3.304,16.799 3.304,12C3.304,7.201 7.201,3.304 12,3.304ZM8.862,16.51L16.51,11.804L8.862,7.49L8.862,16.51Z" style="fill:#fff;"/>
</svg>
