<?xml version="1.0" encoding="UTF-8" standalone="no"?>
<!DOCTYPE svg PUBLIC "-//W3C//DTD SVG 1.1//EN" "http://www.w3.org/Graphics/SVG/1.1/DTD/svg11.dtd">
<svg width="100%" height="100%" viewBox="0 0 24 24" version="1.1" xmlns="http://www.w3.org/2000/svg" xmlns:xlink="http://www.w3.org/1999/xlink" xml:space="preserve" xmlns:serif="http://www.serif.com/" style="fill-rule:evenodd;clip-rule:evenodd;stroke-linejoin:round;stroke-miterlimit:2;">
    <path d="M9.6,15.6L15.828,12L9.6,8.4L9.6,15.6M23.472,6.204C23.628,6.768 23.736,7.524 23.808,8.484C23.892,9.444 23.928,10.272 23.928,10.992L24,12C24,14.628 23.808,16.56 23.472,17.796C23.172,18.876 22.476,19.572 21.396,19.872C20.832,20.028 19.8,20.136 18.216,20.208C16.656,20.292 15.228,20.328 13.908,20.328L12,20.4C6.972,20.4 3.84,20.208 2.604,19.872C1.524,19.572 0.828,18.876 0.528,17.796C0.372,17.232 0.264,16.476 0.192,15.516C0.108,14.556 0.072,13.728 0.072,13.008L0,12C0,9.372 0.192,7.44 0.528,6.204C0.828,5.124 1.524,4.428 2.604,4.128C3.168,3.972 4.2,3.864 5.784,3.792C7.344,3.708 8.772,3.672 10.092,3.672L12,3.6C17.028,3.6 20.16,3.792 21.396,4.128C22.476,4.428 23.172,5.124 23.472,6.204Z" style="fill:white;fill-rule:nonzero;"/>
</svg>
